<?xml version="1.0" ?><svg height="60px" version="1.1" viewBox="0 0 60 60" width="60px" xmlns="http://www.w3.org/2000/svg" xmlns:sketch="http://www.bohemiancoding.com/sketch/ns" xmlns:xlink="http://www.w3.org/1999/xlink"><title/><desc/><defs/><g fill="none" fill-rule="evenodd" id="black" stroke="none" stroke-width="1"><g id="slice" transform="translate(-800.000000, -400.000000)"/><g fill="#000000" id="whatsapp" transform="translate(13.000000, 13.000000)"><path d="M17.0712615,33.2210462 C14.2108308,33.2210462 11.5235692,32.4899692 9.1856,31.2068923 L0.153846154,34.0769231 L3.09809231,25.3918769 C1.61304615,22.9523692 0.757538462,20.0915692 0.757538462,17.0336 C0.757538462,8.09341538 8.06129231,0.846153846 17.0716308,0.846153846 C26.0808615,0.846153846 33.3846154,8.09341538 33.3846154,17.0336 C33.3846154,25.9737846 26.0812308,33.2210462 17.0712615,33.2210462 Z M17.0712615,3.42412308 C9.50793846,3.42412308 3.35581538,9.52935385 3.35581538,17.0336 C3.35581538,20.0114462 4.32652308,22.7692308 5.96812308,25.0130462 L4.25489231,30.0670769 L9.52529231,28.3918769 C11.6912,29.8137846 14.2854154,30.6430769 17.0712615,30.6430769 C24.6334769,30.6430769 30.7867077,24.5382154 30.7867077,17.0339692 C30.7867077,9.52972308 24.6334769,3.42412308 17.0712615,3.42412308 L17.0712615,3.42412308 Z M25.3088,20.7617231 C25.2083692,20.5966769 24.9417846,20.4969846 24.5426462,20.2987077 C24.1424,20.1004308 22.1758769,19.1400615 21.8099692,19.0082462 C21.4429538,18.8760615 21.176,18.8092308 20.9097846,19.2065231 C20.6435692,19.6038154 19.8770462,20.4969846 19.6433231,20.7617231 C19.4099692,21.0268308 19.1769846,21.0600615 18.7771077,20.8614154 C18.3776,20.6631385 17.0889846,20.2440615 15.5611077,18.8923077 C14.3725538,17.8407385 13.5698462,16.5425231 13.3368615,16.1448615 C13.1035077,15.7479385 13.3121231,15.5334154 13.5122462,15.3358769 C13.6920615,15.1579077 13.9121231,14.8724923 14.1122462,14.6409846 C14.3123692,14.4091077 14.3788308,14.2440615 14.5117538,13.9789538 C14.6454154,13.7142154 14.5785846,13.4827077 14.4785231,13.2836923 C14.3784615,13.0854154 13.5783385,11.1329231 13.2452923,10.3383385 C12.9122462,9.54449231 12.5795692,9.67667692 12.3458462,9.67667692 C12.1124923,9.67667692 11.8459077,9.64344615 11.5793231,9.64344615 C11.3127385,9.64344615 10.8792615,9.74276923 10.5126154,10.1396923 C10.1463385,10.5369846 9.1136,11.4969846 9.1136,13.4491077 C9.1136,15.4016 10.5458462,17.288 10.7463385,17.5523692 C10.9460923,17.8167385 13.5118769,21.9536 17.5767385,23.5424 C21.6430769,25.1308308 21.6430769,24.6009846 22.3763692,24.5348923 C23.1085538,24.4688 24.7412923,23.5752615 25.0754462,22.6488615 C25.4081231,21.7217231 25.4081231,20.9271385 25.3088,20.7617231 L25.3088,20.7617231 Z"/></g></g></svg>