<?xml version="1.0" encoding="utf-8"?>
<!-- Generator: Adobe Illustrator 25.2.1, SVG Export Plug-In . SVG Version: 6.00 Build 0)  -->
<svg version="1.1" id="Camada_1" xmlns="http://www.w3.org/2000/svg" xmlns:xlink="http://www.w3.org/1999/xlink" x="0px" y="0px"
	 viewBox="0 0 511 511" style="enable-background:new 0 0 511 511;" xml:space="preserve">
<style type="text/css">
	.st0{fill:#FFFFFF;}
</style>
<path class="st0" d="M255.5,441.1c0,0-0.1,0-0.1,0c-15.4-0.1-151.7-1.3-190.4-11.8c-27-7.3-48.3-28.5-55.6-55.5
	C-0.7,335.9,0,262.8,0,257c-0.1-5.8-0.7-79.5,9.4-117.7c0,0,0-0.1,0-0.1c7.2-26.7,29-48.6,55.5-55.9c0.1,0,0.1,0,0.2-0.1
	c38.2-10,174.8-11.3,190.2-11.4h0.3C271.1,72,407.8,73.2,446,83.7c26.9,7.2,48.2,28.5,55.5,55.5c10.5,38.3,9.5,112.1,9.4,118.3
	c0.1,6.1,0.7,78.5-9.4,116.7c0,0,0,0.1,0,0.1c-7.3,27-28.6,48.3-55.6,55.5c0,0-0.1,0-0.1,0c-38.2,10-174.8,11.3-190.2,11.4
	C255.6,441.1,255.5,441.1,255.5,441.1z M48,149.5c-8.9,33.8-8,106.5-8,107.2v0.5c-0.3,20.2,0.7,78.6,8,106.2
	c3.6,13.2,14.1,23.7,27.4,27.3c28.5,7.7,139.5,10.1,180.1,10.4c40.7-0.3,151.9-2.6,180.2-10c13.3-3.6,23.8-14.1,27.3-27.3
	c7.4-28.1,8.3-86.2,8-106.2c0-0.2,0-0.4,0-0.6c0.4-20.4-0.4-79.5-8-107.4c0,0,0-0.1,0-0.1c-3.6-13.3-14.1-23.8-27.4-27.4
	c-28.2-7.7-139.4-10.1-180.1-10.4c-40.7,0.3-151.7,2.6-180.1,10C62.3,125.4,51.6,136.3,48,149.5z M482.3,369L482.3,369L482.3,369z
	 M204.6,337.3V175.7l139.7,80.8L204.6,337.3z"/>
</svg>
